<svg width="20" height="20" viewBox="0 0 20 20" fill="none" xmlns="http://www.w3.org/2000/svg">
<circle cx="10.3049" cy="10.0849" r="9.67525" fill="#F9F9F7" fill-opacity="0.12"/>
<path d="M14.5889 8.00227C14.2993 8.13098 13.9936 8.21142 13.6719 8.25968C13.9936 8.06663 14.251 7.76096 14.3636 7.39094C14.058 7.5679 13.7201 7.69661 13.3501 7.77704C13.0605 7.47137 12.6422 7.27832 12.1918 7.27832C11.323 7.27832 10.6152 7.98619 10.6152 8.85493C10.6152 8.98363 10.6313 9.09625 10.6634 9.20887C9.36032 9.14451 8.18591 8.51709 7.3976 7.55181C7.2689 7.79313 7.18846 8.05054 7.18846 8.34012C7.18846 8.88711 7.46195 9.36974 7.89632 9.65933C7.63892 9.64324 7.3976 9.57889 7.17237 9.46627V9.48236C7.17237 10.2546 7.71936 10.8981 8.44331 11.0429C8.31461 11.0751 8.16982 11.0911 8.02503 11.0911C7.9285 11.0911 7.81588 11.0751 7.71936 11.059C7.9285 11.6864 8.50766 12.1529 9.19944 12.1529C8.65245 12.5712 7.97676 12.8286 7.23672 12.8286C7.10802 12.8286 6.97931 12.8286 6.8667 12.8125C7.57457 13.263 8.39505 13.5204 9.29597 13.5204C12.2079 13.5204 13.8006 11.1072 13.8006 9.01581C13.8006 8.95146 13.8006 8.87102 13.8006 8.80667C14.1062 8.59753 14.3797 8.32403 14.5889 8.00227Z" fill="white"/>
</svg>
