<svg width="20" height="20" viewBox="0 0 20 20" fill="none" xmlns="http://www.w3.org/2000/svg">
<circle cx="9.70333" cy="10.0849" r="9.67525" fill="#F9F9F7" fill-opacity="0.12"/>
<path d="M9.70452 6.24982C10.9545 6.24982 11.1025 6.25451 11.5963 6.27702C11.8932 6.28066 12.1873 6.33517 12.4658 6.4382C12.6677 6.51608 12.8511 6.63538 13.0041 6.78843C13.1572 6.94147 13.2765 7.12487 13.3544 7.32681C13.4574 7.60528 13.5119 7.89935 13.5155 8.19624C13.5378 8.69004 13.5427 8.83807 13.5427 10.088C13.5427 11.338 13.5381 11.4861 13.5155 11.9798C13.5119 12.2767 13.4574 12.5708 13.3544 12.8493C13.2765 13.0512 13.1572 13.2346 13.0041 13.3877C12.8511 13.5407 12.6677 13.66 12.4658 13.7379C12.1873 13.8409 11.8932 13.8954 11.5963 13.8991C11.1028 13.9214 10.9547 13.9263 9.70452 13.9263C8.45432 13.9263 8.30629 13.9216 7.81272 13.8991C7.51583 13.8954 7.22175 13.8409 6.94329 13.7379C6.74134 13.66 6.55795 13.5407 6.4049 13.3877C6.25186 13.2346 6.13256 13.0512 6.05468 12.8493C5.95165 12.5708 5.89713 12.2767 5.8935 11.9798C5.87121 11.4861 5.8663 11.338 5.8663 10.088C5.8663 8.83807 5.87098 8.69004 5.8935 8.19624C5.89713 7.89935 5.95165 7.60528 6.05468 7.32681C6.13256 7.12487 6.25186 6.94147 6.4049 6.78843C6.55795 6.63538 6.74134 6.51608 6.94329 6.4382C7.22175 6.33517 7.51583 6.28066 7.81272 6.27702C8.30651 6.25473 8.45454 6.24982 9.70452 6.24982V6.24982ZM9.70452 5.40625C8.43381 5.40625 8.27374 5.4116 7.77438 5.43434C7.38582 5.44207 7.00138 5.51564 6.63742 5.65192C6.32521 5.76955 6.04242 5.9539 5.80878 6.19209C5.57038 6.4258 5.38588 6.70875 5.26817 7.02117C5.13189 7.38513 5.05832 7.76956 5.05059 8.15812C5.0283 8.65704 5.02295 8.81711 5.02295 10.0878C5.02295 11.3585 5.0283 11.5186 5.05104 12.018C5.05877 12.4065 5.13234 12.791 5.26862 13.1549C5.3862 13.4673 5.57054 13.7502 5.80878 13.984C6.04254 14.2222 6.32549 14.4066 6.63787 14.5242C7.00183 14.6605 7.38626 14.734 7.77482 14.7418C8.27419 14.764 8.43359 14.7698 9.70497 14.7698C10.9763 14.7698 11.1357 14.7645 11.6351 14.7418C12.0237 14.734 12.4081 14.6605 12.7721 14.5242C13.083 14.4037 13.3653 14.2196 13.601 13.9837C13.8367 13.7479 14.0206 13.4654 14.1409 13.1545C14.2772 12.7905 14.3507 12.4061 14.3584 12.0175C14.3807 11.5186 14.3861 11.3585 14.3861 10.0878C14.3861 8.81711 14.3807 8.65705 14.358 8.15768C14.3503 7.76912 14.2767 7.38468 14.1404 7.02072C14.0228 6.70835 13.8385 6.4254 13.6003 6.19164C13.3665 5.9534 13.0835 5.76905 12.7712 5.65148C12.4072 5.51519 12.0228 5.44162 11.6342 5.43389C11.1353 5.4116 10.9752 5.40625 9.70452 5.40625Z" fill="white"/>
<path d="M9.70329 7.68628C9.22781 7.68628 8.763 7.82728 8.36765 8.09144C7.9723 8.35561 7.66416 8.73108 7.4822 9.17037C7.30024 9.60966 7.25263 10.093 7.34539 10.5594C7.43815 11.0257 7.66712 11.4541 8.00334 11.7903C8.33956 12.1266 8.76793 12.3555 9.23428 12.4483C9.70063 12.541 10.184 12.4934 10.6233 12.3115C11.0626 12.1295 11.4381 11.8214 11.7022 11.426C11.9664 11.0307 12.1074 10.5659 12.1074 10.0904C12.1074 9.45277 11.8541 8.84128 11.4032 8.39042C10.9524 7.93957 10.3409 7.68628 9.70329 7.68628ZM9.70329 11.6509C9.39465 11.6509 9.09294 11.5594 8.83631 11.3879C8.57969 11.2164 8.37967 10.9727 8.26156 10.6876C8.14345 10.4024 8.11254 10.0886 8.17275 9.78593C8.23297 9.48322 8.38159 9.20516 8.59984 8.98692C8.81808 8.76868 9.09614 8.62005 9.39885 8.55984C9.70156 8.49963 10.0153 8.53053 10.3005 8.64864C10.5856 8.76675 10.8293 8.96677 11.0008 9.2234C11.1723 9.48002 11.2638 9.78174 11.2638 10.0904C11.2638 10.5043 11.0994 10.9012 10.8068 11.1938C10.5141 11.4865 10.1172 11.6509 9.70329 11.6509V11.6509Z" fill="white"/>
<path d="M12.2106 8.15165C12.5209 8.15165 12.7724 7.90013 12.7724 7.58986C12.7724 7.2796 12.5209 7.02808 12.2106 7.02808C11.9003 7.02808 11.6488 7.2796 11.6488 7.58986C11.6488 7.90013 11.9003 8.15165 12.2106 8.15165Z" fill="white"/>
</svg>
