<svg width="20" height="20" viewBox="0 0 20 20" fill="none" xmlns="http://www.w3.org/2000/svg">
<circle cx="9.90254" cy="10.0849" r="9.67525" fill="#F9F9F7" fill-opacity="0.12"/>
<path fill-rule="evenodd" clip-rule="evenodd" d="M10.3351 5.40625C7.85346 5.40625 5.85693 7.40277 5.85693 9.88444C5.85693 11.8623 7.14441 13.5416 8.91703 14.1387C9.14094 14.176 9.21557 14.0454 9.21557 13.9148C9.21557 13.8028 9.21557 13.523 9.21557 13.1498C7.96541 13.4297 7.70419 12.5527 7.70419 12.5527C7.49894 12.0302 7.20039 11.8996 7.20039 11.8996C6.78989 11.6197 7.23771 11.6197 7.23771 11.6197C7.68553 11.6571 7.92809 12.0862 7.92809 12.0862C8.31994 12.7766 8.973 12.5713 9.23423 12.4594C9.27155 12.1608 9.38351 11.9743 9.51412 11.8623C8.52519 11.7503 7.48028 11.3585 7.48028 9.64187C7.48028 9.15673 7.64821 8.74623 7.94675 8.44768C7.90944 8.33573 7.7415 7.88791 7.98407 7.2535C7.98407 7.2535 8.35725 7.14155 9.21557 7.71998C9.5701 7.62668 9.96194 7.57071 10.3351 7.57071C10.7083 7.57071 11.1001 7.62668 11.4547 7.71998C12.313 7.14155 12.6862 7.2535 12.6862 7.2535C12.9287 7.86925 12.7795 8.31707 12.7235 8.44768C13.0034 8.76489 13.19 9.15673 13.19 9.64187C13.19 11.3585 12.1451 11.7317 11.1375 11.8436C11.3054 11.9743 11.436 12.2541 11.436 12.6646C11.436 13.2617 11.436 13.7469 11.436 13.8961C11.436 14.0081 11.5106 14.1574 11.7532 14.1201C13.5258 13.5416 14.8133 11.8623 14.8133 9.88444C14.8133 7.40277 12.8168 5.40625 10.3351 5.40625Z" fill="white"/>
</svg>
