<svg width="57" height="55" viewBox="0 0 57 55" fill="none" xmlns="http://www.w3.org/2000/svg">
<g clip-path="url(#clip0_10_2267)">
<path d="M48.1696 0.803952C47.8611 0.62592 47.4932 0.57519 47.1467 0.662861C46.8001 0.750533 46.503 0.969467 46.3204 1.27175L36.649 17.3632C36.5994 17.4466 36.5594 17.5352 36.5296 17.6273C35.4475 18.0213 34.4375 18.5849 33.5389 19.296C30.6084 14.4065 25.2392 11.3277 19.3733 11.3277C10.3223 11.3277 2.95979 18.5484 2.93456 27.4318H0.801025L0.991795 28.9241C2.10195 37.5971 7.5481 45.1726 15.3789 49.1616V54.2827H35.5844C38.1456 54.2827 40.2293 52.2344 40.2293 49.7183V49.1623C48.0626 45.1714 53.5063 37.5959 54.6189 28.9241L54.8096 27.4306H50.9567C50.9389 22.8964 47.9783 19.0416 43.8601 17.5862L55.9266 6.18186C56.4632 5.67478 56.4804 4.83467 55.9623 4.30763C55.8395 4.18216 55.6927 4.08167 55.5304 4.0119C55.3681 3.94214 55.1933 3.90447 55.0162 3.90104C54.839 3.89762 54.6629 3.92851 54.4979 3.99195C54.3329 4.05539 54.1823 4.15013 54.0546 4.27077L40.6133 16.9764C40.4927 16.9715 40.3727 16.9582 40.2503 16.9582C40.1727 16.9582 40.0983 16.9691 40.0219 16.9703L48.6459 2.62016C48.7361 2.47019 48.7953 2.30425 48.8202 2.13181C48.845 1.95937 48.8351 1.78381 48.7908 1.61516C48.7466 1.4465 48.669 1.28806 48.5624 1.14887C48.4558 1.00968 48.3223 0.892478 48.1696 0.803952ZM19.3727 13.9804C24.5401 13.9804 29.2503 16.8374 31.593 21.3135C30.7389 22.4673 30.1333 23.78 29.8133 25.1714C28.7395 20.4764 24.4699 16.957 19.3727 16.957C13.4853 16.957 8.69579 21.652 8.67056 27.4312H5.63549C5.6601 20.011 11.8115 13.9804 19.3727 13.9804ZM19.3727 22.5936C16.6466 22.5936 14.4281 24.7604 14.4029 27.4312H11.3721C11.3973 23.1146 14.9746 19.6103 19.3727 19.6103C23.7721 19.6103 27.353 23.1146 27.3758 27.4312H24.3413C24.3173 24.7604 22.0989 22.5936 19.3727 22.5936ZM21.6386 27.4318H17.1069C17.1189 26.8488 17.363 26.2936 17.7867 25.8851C18.2104 25.4766 18.7802 25.2473 19.3739 25.2463C19.9674 25.2475 20.5368 25.4769 20.9601 25.8854C21.3834 26.2939 21.627 26.8491 21.6386 27.4318ZM51.6976 30.0845C50.1967 37.793 44.8743 44.3646 37.4976 47.5123H33.1746V50.1656H37.4687C37.3676 50.5819 37.1269 50.9526 36.7852 51.2183C36.4435 51.4839 36.0208 51.6289 35.585 51.63H18.0804V50.1656H23.1444V47.5123H18.113C10.7364 44.3664 5.41333 37.793 3.91118 30.0845H51.6976ZM37.985 27.4318C37.9969 26.849 38.2407 26.294 38.664 25.8855C39.0874 25.4771 39.6568 25.2476 40.2503 25.2463C40.8443 25.2468 41.4144 25.4759 41.8385 25.8845C42.2625 26.293 42.5066 26.8485 42.5186 27.4318H37.985ZM40.2503 19.6109C44.6515 19.6109 48.2336 23.1152 48.257 27.4318H45.2207C45.1961 24.761 42.977 22.5942 40.2503 22.5942C37.5241 22.5942 35.3075 24.761 35.2829 27.4318H32.2496C32.2743 23.1152 35.8515 19.6109 40.2503 19.6109Z" fill="#AD343E"/>
<path d="M39.6741 42.9139C39.8901 42.9139 40.1086 42.8637 40.3098 42.7568C41.9591 41.8897 43.4065 40.6947 44.5598 39.248C45.7131 37.8012 46.5469 36.1345 47.0082 34.3539C47.0524 34.1848 47.0622 34.0088 47.037 33.8361C47.0118 33.6633 46.9522 33.4971 46.8614 33.347C46.7707 33.1969 46.6507 33.0659 46.5083 32.9615C46.3659 32.8571 46.2039 32.7813 46.0316 32.7385C45.8593 32.6957 45.6801 32.6867 45.5043 32.7121C45.3285 32.7374 45.1595 32.7967 45.007 32.8863C44.8545 32.976 44.7215 33.0943 44.6157 33.2346C44.5099 33.3748 44.4334 33.5342 44.3904 33.7035C44.0221 35.1266 43.356 36.4588 42.4345 37.6151C41.5131 38.7714 40.3565 39.7265 39.0384 40.4196C38.7726 40.5585 38.5618 40.7808 38.4395 41.051C38.3172 41.3213 38.2905 41.6239 38.3636 41.9108C38.4367 42.1976 38.6054 42.4522 38.8429 42.634C39.0804 42.8158 39.373 42.9143 39.6741 42.9139Z" fill="#474747"/>
<path d="M36.4059 45.0064C37.2903 45.0064 38.0072 44.3023 38.0072 43.4337C38.0072 42.5652 37.2903 41.8611 36.4059 41.8611C35.5216 41.8611 34.8047 42.5652 34.8047 43.4337C34.8047 44.3023 35.5216 45.0064 36.4059 45.0064Z" fill="#474747"/>
</g>
<defs>
<clipPath id="clip0_10_2267">
<rect width="56" height="55" fill="white" transform="translate(0.5)"/>
</clipPath>
</defs>
</svg>
